<svg xmlns="http://www.w3.org/2000/svg" width="114" height="48" fill="none" viewBox="0 0 114 48" id="svg-logo">
<path fill="#F29800" fill-rule="evenodd" d="M108.617 8.506c-.526.232-1.049.367-1.535.381-.484.013-.887-.097-1.2-.303a1.688 1.688 0 0 1-.665-.892c-.129-.378-.161-.83-.09-1.336.069-.503.24-1.058.52-1.644a8.47 8.47 0 0 1 1.056-1.652 9.15 9.15 0 0 1 1.373-1.368 7.24 7.24 0 0 1 1.528-.952c.516-.234 1.028-.374 1.509-.399.483-.026.89.069 1.21.26.322.193.558.485.7.853.141.37.188.817.13 1.321-.057.505-.221 1.067-.497 1.66a8.368 8.368 0 0 1-1.064 1.697 9.14 9.14 0 0 1-1.41 1.408 7.218 7.218 0 0 1-1.565.966Zm-14.483 15.71c.487 0 1.015-.129 1.553-.363a7.231 7.231 0 0 0 1.609-.99 9.61 9.61 0 0 0 2.607-3.253c.303-.63.488-1.227.569-1.767.077-.538.05-1.018-.075-1.42a1.742 1.742 0 0 0-.665-.933c-.313-.216-.717-.328-1.2-.315-.485.012-1.005.147-1.53.383a7.26 7.26 0 0 0-1.57.976c-.51.409-.997.891-1.434 1.427a9.29 9.29 0 0 0-1.126 1.74c-.306.62-.5 1.209-.591 1.747-.09.538-.078 1.025.034 1.434.113.41.323.744.629.973.305.233.705.361 1.19.361Zm-3.841 11.45c-.568.238-1.122.363-1.633.348-.509-.014-.925-.166-1.24-.43-.318-.262-.532-.634-.644-1.088-.11-.452-.117-.986-.013-1.575a7.22 7.22 0 0 1 .647-1.896 10.206 10.206 0 0 1 2.734-3.395 7.55 7.55 0 0 1 1.659-1.022c.554-.24 1.101-.375 1.608-.373.508 0 .93.136 1.253.38.325.246.556.604.682 1.044.126.442.148.97.055 1.558-.091.59-.296 1.238-.622 1.92a10.107 10.107 0 0 1-1.22 1.925 10.29 10.29 0 0 1-1.565 1.565 7.41 7.41 0 0 1-1.701 1.038Zm-10.056.22c.489.014 1.025-.11 1.573-.344a7.364 7.364 0 0 0 1.654-1.016 10.017 10.017 0 0 0 1.534-1.53 10.03 10.03 0 0 0 1.215-1.88c.329-.668.54-1.302.644-1.879.101-.574.094-1.09-.015-1.524-.11-.432-.321-.78-.626-1.02-.304-.24-.704-.373-1.19-.375-.484 0-1.011.13-1.55.366a7.327 7.327 0 0 0-1.611 1 10.31 10.31 0 0 0-2.703 3.322 7.313 7.313 0 0 0-.664 1.856c-.115.575-.122 1.097-.026 1.538.094.444.291.809.587 1.066.298.255.692.404 1.178.42Zm-6.342 12.01c.51.03 1.07-.087 1.649-.328.578-.24 1.172-.605 1.749-1.063a10.7 10.7 0 0 0 1.631-1.631c.5-.62.947-1.303 1.304-2.026.357-.721.59-1.41.707-2.039.117-.628.117-1.194.01-1.672-.109-.477-.323-.865-.64-1.137-.316-.273-.732-.43-1.24-.446-.507-.017-1.06.11-1.626.353-.566.243-1.144.6-1.704 1.047-.56.448-1.1.984-1.59 1.585a10.957 10.957 0 0 0-1.29 1.974 8.195 8.195 0 0 0-.728 2.012c-.128.628-.146 1.202-.053 1.688.09.49.291.893.595 1.185.307.292.716.467 1.226.498Z" clip-rule="evenodd"></path>
<path fill="#666" fill-rule="evenodd" d="M19.386 1.047v11.852H10.6V1.048H.334v.708l.884.094c1.627.173 2.39.255 2.749.679.316.374.316 1.015.316 2.223V29.7H10.6V16.757h8.786V29.7h6.317V1.047h-6.317Zm11.894 0v.707l.856.116c1.669.224 2.437.327 2.79.765.303.374.303.992.303 2.136V29.7h6.318V1.048H31.28Zm36.431.005h4.442V29.7h-5.327L55.274 9.72V29.7h-4.442V5.144c0-2.618 0-2.618-2.502-3.1l-1.447-.282v-.71h9.867l10.961 19v-19Z" clip-rule="evenodd"></path>
</svg>